<svg width="72" height="60" viewBox="0 0 72 60" fill="none" xmlns="http://www.w3.org/2000/svg">
<path d="M35.9964 7.23257C14.5237 -16.0585 -22.7384 21.8189 20.1132 51.3083C21.7737 52.4499 24.0404 51.3323 24.1341 49.3204L24.5198 40.9294C24.5529 40.2277 24.1414 39.5775 23.4875 39.3185C14.8268 35.8818 19.4244 17.3389 26.5642 17.3389C33.704 17.3389 38.2998 35.8818 29.6391 39.3185C28.9852 39.5775 28.5737 40.2277 28.6068 40.9294L29.0201 49.8888C29.2166 54.1739 31.768 58.1529 35.9964 60C40.4415 58.0583 42.8974 54.029 43.0811 49.8145L43.5072 40.1157C43.5384 39.3956 43.0976 38.7454 42.4253 38.4864C35.7704 35.9258 37.5577 24.6678 40.4489 18.8818C40.8713 18.0387 41.9918 18.0332 41.9918 18.7881V29.8716C41.9918 30.4208 42.4161 30.9002 42.9653 30.9168C43.5329 30.9333 43.9977 30.4778 43.9977 29.9139V18.9351C43.9977 18.1122 44.6185 17.3958 45.4377 17.3425C46.3378 17.2837 47.0836 17.9964 47.0836 18.8818V29.8716C47.0836 30.4208 47.5078 30.9002 48.0552 30.9168C48.6246 30.9333 49.0894 30.4778 49.0894 29.9139V18.7881C49.0894 18.0332 50.2117 18.0387 50.6323 18.8818C53.5253 24.6678 55.3108 35.9258 48.6559 38.4864C47.9836 38.7454 47.5446 39.3956 47.5758 40.1157L47.9744 49.2343C48.0626 51.2508 50.3384 52.3733 51.9989 51.2258C94.6632 21.7436 57.4507 -16.0365 35.9964 7.23257Z" fill="url(#paint0_linear_2420_16671)"/>
<defs>
<linearGradient id="paint0_linear_2420_16671" x1="71.5797" y1="-0.145755" x2="12.443" y2="69.9959" gradientUnits="userSpaceOnUse">
<stop stop-color="#FFB800"/>
<stop offset="1" stop-color="#FFDA7B"/>
</linearGradient>
</defs>
</svg>
