<svg width="70" height="60" viewBox="0 0 70 60" fill="none" xmlns="http://www.w3.org/2000/svg">
<path d="M30.4408 58.2107C33.0248 60.5907 37.0028 60.5907 39.5868 58.2447L39.9268 57.9387L40.1322 57.7521C42.6401 55.4735 45.0254 53.3063 47.2713 51.2274L35.689 39.6825L23.4855 51.8861C25.568 53.8 27.766 55.789 30.0668 57.8707L30.4408 58.2107Z" fill="url(#paint0_linear_2420_3982)"/>
<path fill-rule="evenodd" clip-rule="evenodd" d="M20.1051 48.7452C8.01907 37.3659 0.643317 28.496 0.996517 17.9544C1.20052 12.1743 4.15854 6.63228 8.95258 3.36825C17.9287 -2.7518 29.0128 0.104225 34.9968 7.10828C40.9809 0.104225 52.0649 -2.7858 61.041 3.36825C65.835 6.63228 68.7931 12.1743 68.9971 17.9544C69.3695 28.2761 62.2905 36.9951 50.6427 48.0687L32.3128 29.7388C33.9547 26.2007 32.7984 21.2288 29.1215 17.552C24.6816 13.1351 18.3453 12.3026 14.9691 15.6789C11.5698 19.0782 12.4254 25.4144 16.8422 29.8313C20.5191 33.5081 25.4909 34.6644 29.0291 33.0225L32.4284 36.4219L20.1051 48.7452ZM44.7054 37.2082L38.161 30.6639L52.4753 16.3727C53.5853 15.2627 55.5047 15.5633 56.1984 16.997C57.8403 20.4427 57.2391 24.6745 54.3947 27.542L44.7054 37.2082Z" fill="url(#paint1_linear_2420_3982)"/>
<defs>
<linearGradient id="paint0_linear_2420_3982" x1="69.0111" y1="60.1458" x2="9.48093" y2="-7.34826" gradientUnits="userSpaceOnUse">
<stop stop-color="#FF1843"/>
<stop offset="1" stop-color="#FF7E95"/>
</linearGradient>
<linearGradient id="paint1_linear_2420_3982" x1="69.0111" y1="60.1458" x2="9.48093" y2="-7.34826" gradientUnits="userSpaceOnUse">
<stop stop-color="#FF1843"/>
<stop offset="1" stop-color="#FF7E95"/>
</linearGradient>
</defs>
</svg>
